<svg version="1.1" id="Layer_1" xmlns="http://www.w3.org/2000/svg" xmlns:xlink="http://www.w3.org/1999/xlink" x="0px" y="0px"
	 width="100%" viewBox="0 0 512 512" enable-background="new 0 0 512 512" xml:space="preserve">
<path fill="#030303" opacity="1.000000" stroke="none" 
	d="
M1.000000,142.000000 
	C1.000000,94.666664 1.000000,47.833332 1.000000,1.000000 
	C171.666672,1.000000 342.333344,1.000000 513.000000,1.000000 
	C513.000000,171.666672 513.000000,342.333344 513.000000,513.000000 
	C342.333344,513.000000 171.666672,513.000000 1.000000,513.000000 
	C1.000000,389.500000 1.000000,266.000000 1.000000,142.000000 
M33.536503,86.044411 
	C21.798294,99.137711 15.814440,114.460632 15.812647,132.061050 
	C15.802358,233.053909 15.720628,334.046875 15.855427,435.039551 
	C15.905554,472.594574 45.122204,502.351868 82.679291,502.456024 
	C184.171341,502.737457 285.664978,502.699829 387.157288,502.471466 
	C419.932068,502.397705 446.650146,479.605652 452.858276,447.462219 
	C453.387939,444.719788 454.401550,443.215973 457.067017,442.050964 
	C485.957611,429.423645 501.359833,407.166504 501.473633,375.724365 
	C501.830109,277.232635 501.681122,178.738708 501.567505,80.245811 
	C501.520538,39.528751 470.595276,8.886975 429.784851,8.865848 
	C331.458496,8.814943 233.132080,8.818850 134.805725,8.866593 
	C100.787453,8.883111 73.610748,30.216949 65.043312,63.146751 
	C64.563049,64.992691 62.708012,67.218102 60.966667,67.877632 
	C50.643875,71.787422 41.616989,77.525986 33.536503,86.044411 
z"/>
<path fill="#F6F7F6" opacity="1.000000" stroke="none" 
	d="
M33.774403,85.780243 
	C41.616989,77.525986 50.643875,71.787422 60.966667,67.877632 
	C62.708012,67.218102 64.563049,64.992691 65.043312,63.146751 
	C73.610748,30.216949 100.787453,8.883111 134.805725,8.866593 
	C233.132080,8.818850 331.458496,8.814943 429.784851,8.865848 
	C470.595276,8.886975 501.520538,39.528751 501.567505,80.245811 
	C501.681122,178.738708 501.830109,277.232635 501.473633,375.724365 
	C501.359833,407.166504 485.957611,429.423645 457.067017,442.050964 
	C454.401550,443.215973 453.387939,444.719788 452.858276,447.462219 
	C446.650146,479.605652 419.932068,502.397705 387.157288,502.471466 
	C285.664978,502.699829 184.171341,502.737457 82.679291,502.456024 
	C45.122204,502.351868 15.905554,472.594574 15.855427,435.039551 
	C15.720628,334.046875 15.802358,233.053909 15.812647,132.061050 
	C15.814440,114.460632 21.798294,99.137711 33.774403,85.780243 
M436.864716,286.500031 
	C436.864258,235.504456 436.891907,184.508881 436.852722,133.513336 
	C436.829346,103.101654 415.292603,81.483452 384.881287,81.469109 
	C285.056793,81.422020 185.232224,81.401184 85.408005,81.569153 
	C79.179832,81.579628 72.677193,82.449600 66.777954,84.376266 
	C45.992001,91.164871 33.015831,110.200348 33.008999,133.056625 
	C32.979172,232.881119 32.982693,332.705627 33.001976,432.530121 
	C33.008060,464.024750 54.240555,485.282623 85.706429,485.289459 
	C185.197617,485.311035 284.688812,485.311920 384.179993,485.289398 
	C415.611237,485.282288 436.844788,463.976746 436.858704,432.487213 
	C436.880096,384.158173 436.864594,335.829102 436.864716,286.500031 
M454.049988,322.500000 
	C454.049988,356.239441 454.049988,389.978882 454.049988,424.672455 
	C456.578369,423.281586 458.351868,422.481689 459.938446,421.406067 
	C476.205872,410.377289 484.348267,394.998749 484.350891,375.353912 
	C484.363953,277.719086 484.369171,180.084259 484.353699,82.449432 
	C484.348328,48.485374 461.906342,26.035908 427.976715,26.026987 
	C366.829987,26.010910 305.683258,26.021095 244.536530,26.022566 
	C207.548599,26.023457 170.560333,25.935646 133.572861,26.066597 
	C111.311981,26.145409 91.662064,39.855614 84.054527,60.228008 
	C83.629959,61.364971 83.458908,62.596603 83.060951,64.231598 
	C85.622253,64.231598 87.604370,64.231598 89.586479,64.231606 
	C187.387924,64.231728 285.189362,64.211914 382.990784,64.284813 
	C388.463593,64.288895 394.033875,64.540466 399.392242,65.555801 
	C431.400604,71.620918 453.960236,99.055847 454.014282,132.061829 
	C454.117737,195.207733 454.047913,258.353943 454.049988,322.500000 
z"/>
<path fill="#020202" opacity="1.000000" stroke="none" 
	d="
M436.864716,287.000061 
	C436.864594,335.829102 436.880096,384.158173 436.858704,432.487213 
	C436.844788,463.976746 415.611237,485.282288 384.179993,485.289398 
	C284.688812,485.311920 185.197617,485.311035 85.706429,485.289459 
	C54.240555,485.282623 33.008060,464.024750 33.001976,432.530121 
	C32.982693,332.705627 32.979172,232.881119 33.008999,133.056625 
	C33.015831,110.200348 45.992001,91.164871 66.777954,84.376266 
	C72.677193,82.449600 79.179832,81.579628 85.408005,81.569153 
	C185.232224,81.401184 285.056793,81.422020 384.881287,81.469109 
	C415.292603,81.483452 436.829346,103.101654 436.852722,133.513336 
	C436.891907,184.508881 436.864258,235.504456 436.864716,287.000061 
M358.793060,197.703491 
	C362.108551,198.197708 363.053680,196.724197 362.976837,193.488724 
	C362.783997,185.368210 362.936401,177.239502 362.874664,168.291748 
	C361.396454,167.863220 359.930450,167.123596 358.437744,167.065155 
	C354.152649,166.897415 349.845062,167.186371 345.571198,166.910385 
	C344.001099,166.809006 342.500671,165.627930 341.126984,164.281479 
	C342.959076,161.766708 344.791168,159.251938 346.605255,156.761856 
	C338.462799,147.186661 326.836853,153.075943 316.389679,150.596176 
	C317.838043,149.024857 318.823639,147.955597 320.144836,146.522247 
	C315.788300,145.763794 312.046539,144.777588 308.268066,144.607651 
	C306.589783,144.532166 304.323792,145.673706 303.208466,147.003967 
	C298.623627,152.472321 294.534485,158.356583 289.944275,163.820023 
	C287.557831,166.660461 284.507141,168.942795 281.389526,171.815384 
	C287.217896,175.531342 290.449036,179.994965 289.289337,186.884232 
	C288.726715,190.226379 289.192139,193.741592 289.192139,197.822601 
	C294.866669,197.822601 299.856873,197.822601 304.847046,197.822601 
	C304.946655,198.308090 305.046295,198.793594 305.145905,199.279083 
	C298.051453,202.220490 290.957001,205.161880 283.547607,208.233841 
	C284.976959,210.078644 286.514740,211.614670 287.510010,213.445618 
	C289.329041,216.792023 291.529053,217.159943 294.798798,215.466736 
	C298.782745,213.403656 302.913818,211.575836 307.118286,210.015396 
	C308.496643,209.503845 310.302643,210.144424 311.913055,210.258118 
	C311.973419,210.985214 312.033783,211.712311 312.094147,212.439423 
	C302.810791,216.749420 293.527405,221.059418 284.078644,225.446198 
	C286.156433,228.331406 288.250092,231.238647 290.774902,234.744598 
	C300.182129,229.677094 309.356323,224.735107 318.518219,219.799728 
	C321.016327,222.079483 320.028656,223.901642 317.590393,225.281357 
	C308.339508,230.516037 299.083374,235.744049 289.746246,240.821991 
	C287.338989,242.131149 284.628845,242.883255 281.877045,243.962158 
	C284.559998,247.589569 286.910339,250.767242 289.486481,254.250229 
	C294.694336,251.810364 299.735046,249.448837 305.415527,246.787582 
	C306.310120,249.883209 306.949158,252.585007 307.900970,255.171738 
	C308.346771,256.383179 309.188690,258.046082 310.204010,258.358856 
	C320.982056,261.679291 332.601807,255.273376 334.956116,244.175003 
	C335.952087,239.480072 335.159180,234.384857 335.007721,229.476852 
	C334.940216,227.290161 334.448730,225.116531 334.149658,222.936981 
	C341.839417,233.988205 347.340698,246.157547 359.175842,253.426865 
	C362.293182,249.537231 365.172119,245.945053 368.268555,242.081543 
	C360.865906,236.685913 354.542542,230.484711 350.604980,221.730865 
	C356.323730,217.660233 361.876343,213.707870 367.697693,209.564209 
	C364.650879,206.762192 361.344360,203.721344 358.062378,199.995056 
	C358.038666,199.309784 358.014954,198.624496 358.793060,197.703491 
M215.126114,248.388321 
	C217.916199,245.453705 214.599380,245.209061 213.228821,244.404465 
	C201.829315,237.712326 194.570084,227.827866 189.712769,214.840759 
	C198.967453,214.840759 207.379028,214.840759 215.853271,214.840759 
	C215.853271,210.220779 215.853271,206.147430 215.853271,202.053925 
	C213.897415,201.817398 212.287827,201.622742 210.159973,201.365417 
	C210.159973,188.249023 210.159973,175.344147 210.159973,161.768158 
	C201.914413,161.768158 194.199402,161.768158 185.750061,161.768158 
	C186.263794,156.040649 186.709198,151.075027 187.195496,145.653564 
	C183.071701,145.463165 177.843552,145.221786 172.053452,144.954468 
	C172.053452,150.813843 172.053452,156.062302 172.053452,161.909088 
	C164.317139,161.909088 157.090469,161.909088 149.318024,161.909088 
	C149.318024,175.427704 149.318024,188.336868 149.318024,201.453949 
	C147.015503,201.453949 145.290817,201.453949 142.932190,201.453949 
	C142.932190,184.618103 142.932190,168.075134 142.932190,151.442932 
	C130.043457,151.442932 117.791481,151.442932 105.261246,151.442932 
	C105.261246,182.801193 105.261246,213.868988 105.261246,245.104126 
	C109.689125,245.104126 113.902351,245.104126 118.664154,245.104126 
	C118.664154,241.511581 118.664154,238.282913 118.664154,234.633301 
	C126.976936,234.633301 134.745468,234.633301 143.085907,234.633301 
	C143.085907,227.965973 143.085907,221.733429 143.085907,215.401520 
	C152.001770,215.401520 160.324905,215.401520 169.114304,215.401520 
	C163.699356,232.267654 150.797272,240.529434 135.882050,246.700500 
	C138.619186,250.020554 140.745789,253.028687 143.346985,255.546478 
	C144.402908,256.568542 146.939560,257.387360 148.036423,256.819336 
	C153.926392,253.769318 160.205902,250.982452 165.144318,246.710052 
	C171.064713,241.588120 175.769943,235.061584 180.885193,229.274765 
	C195.586685,251.043716 199.424118,255.195114 207.534515,257.910217 
	C209.896271,254.928177 212.265457,251.936752 215.126114,248.388321 
M267.555817,307.062744 
	C264.481354,307.062744 261.406891,307.062744 258.433777,307.062744 
	C258.433777,343.525299 258.433777,379.122772 258.433777,414.812683 
	C263.290649,414.812683 267.831543,414.812683 272.428345,414.812683 
	C272.751099,412.863892 273.012543,411.285156 273.353882,409.224182 
	C304.119415,409.224182 334.694824,409.224182 365.247192,409.224182 
	C365.247192,404.282135 365.247192,399.876495 365.247192,394.955383 
	C334.286804,394.955383 303.716553,394.955383 273.095459,394.955383 
	C273.095459,370.168976 273.095459,345.913330 273.095459,321.101624 
	C302.933411,321.101624 332.504181,321.101624 362.333435,321.101624 
	C362.333435,316.166016 362.333435,311.790222 362.333435,307.062744 
	C330.824829,307.062744 299.681976,307.062744 267.555817,307.062744 
M106.885918,370.253967 
	C105.944283,370.911774 104.242126,371.513428 104.188698,372.236847 
	C103.913399,375.964355 104.061005,379.723114 104.061005,383.967834 
	C120.053612,383.967834 135.288849,383.967834 150.869232,383.967834 
	C150.869232,386.784882 150.902771,389.089478 150.863525,391.392822 
	C150.678040,402.278442 152.693756,401.290894 141.149994,401.355652 
	C137.212509,401.377747 133.274796,401.359192 128.956985,401.359192 
	C130.672363,405.721588 132.073975,409.775604 133.916763,413.618011 
	C134.360962,414.544220 136.275040,415.254639 137.498108,415.232483 
	C142.488083,415.142212 147.512665,415.031982 152.450089,414.372223 
	C162.763046,412.994202 165.884003,409.236725 165.968292,398.807648 
	C166.008118,393.880676 165.975113,388.953094 165.975113,383.663239 
	C182.014908,383.663239 197.295288,383.663239 212.784332,383.663239 
	C212.784332,379.070953 212.784332,374.881104 212.784332,370.125458 
	C198.057785,370.125458 183.698105,370.125458 168.683243,370.125458 
	C177.529282,362.666382 185.708450,355.769653 194.729050,348.163391 
	C189.920502,345.911072 185.987350,342.578308 181.944534,342.439514 
	C166.477142,341.908325 150.974518,342.407776 135.484970,342.513519 
	C132.371017,342.534760 129.256805,342.516602 125.949783,342.516602 
	C125.949783,347.039917 125.949783,350.948486 125.949783,355.666290 
	C139.140228,355.666290 152.073715,355.666290 165.007202,355.666290 
	C165.166855,356.361786 165.326508,357.057312 165.486160,357.752808 
	C160.852707,359.643311 156.219238,361.533813 151.003113,363.662079 
	C150.919830,364.998199 150.768875,367.420135 150.592346,370.252350 
	C136.088440,370.252350 121.955521,370.252350 106.885918,370.253967 
M211.861404,324.707275 
	C211.765564,323.260895 211.669724,321.814514 211.538040,319.827240 
	C206.489975,319.827240 201.774063,319.827240 195.636353,319.827240 
	C199.563339,314.910248 202.653915,311.040558 205.885544,306.994232 
	C204.240372,306.380554 202.243790,305.611511 200.230515,304.888977 
	C190.383759,301.355164 189.935989,301.133820 185.261932,310.372284 
	C181.263519,318.275299 176.066055,322.198181 168.471558,319.803040 
	C164.877090,313.235474 161.712555,307.306427 158.343994,301.495697 
	C157.949371,300.814941 156.275238,300.287628 155.458908,300.541199 
	C151.860077,301.659149 148.358246,303.089325 144.602722,304.487762 
	C147.159210,309.657135 149.467438,314.324524 152.073349,319.593842 
	C146.729263,319.593842 142.328583,319.593842 139.101074,319.593842 
	C134.983124,313.829956 131.340881,308.574890 127.471642,303.492615 
	C126.918144,302.765625 125.074501,302.351898 124.158134,302.689453 
	C120.758690,303.941803 117.497353,305.569031 113.884834,307.189667 
	C116.585258,311.334625 119.052727,315.122009 122.282570,320.079559 
	C115.992760,320.079559 111.153259,320.079559 106.446899,320.079559 
	C106.446899,330.395264 106.446899,339.961121 106.446899,349.556213 
	C111.080376,349.556213 115.317200,349.556213 120.114044,349.556213 
	C120.114044,343.989716 120.114044,338.749237 120.114044,333.324799 
	C146.069244,333.324799 171.457428,333.324799 197.388245,333.324799 
	C197.388245,338.847717 197.388245,344.098267 197.388245,349.491760 
	C202.461090,349.491760 206.985565,349.491760 211.861206,349.491760 
	C211.861206,341.282776 211.861206,333.475983 211.861404,324.707275 
M311.662842,343.137329 
	C305.785828,339.353271 299.967041,335.472351 293.978668,331.873627 
	C292.889862,331.219238 290.650269,331.108521 289.730957,331.798370 
	C286.879395,333.938080 284.408051,336.584473 281.695129,339.122192 
	C290.576538,345.336517 298.845703,351.122437 308.132172,357.620178 
	C297.714691,366.463196 288.052917,374.664734 278.289368,382.952637 
	C281.983521,386.133484 285.705475,389.338287 290.078308,393.103546 
	C300.000305,384.307343 309.659149,375.744446 320.882385,365.794647 
	C327.398529,373.126923 334.093964,380.661011 340.026245,387.336334 
	C344.507721,383.442047 348.219025,380.216980 352.472626,376.520691 
	C344.426514,369.171997 336.735046,362.147247 328.837708,354.934479 
	C334.850677,346.279205 340.808624,337.703064 346.912445,328.916992 
	C343.582031,327.531342 339.404358,325.986206 335.407318,324.065155 
	C332.544952,322.689392 331.172211,323.302612 329.565918,326.084381 
	C325.609711,332.935791 321.185669,339.517059 316.836060,346.386505 
	C314.796967,345.131256 313.540375,344.357697 311.662842,343.137329 
M275.170837,258.823700 
	C279.363342,259.369995 278.613129,256.367249 278.614380,253.971573 
	C278.626953,229.985291 278.574860,205.998779 278.697632,182.013123 
	C278.709839,179.630798 279.759766,177.253799 280.422760,174.477814 
	C280.151062,174.168579 278.654816,173.056305 278.835205,172.582977 
	C281.839264,164.700043 285.053314,156.897141 288.305969,148.865387 
	C284.332306,147.560837 279.496216,145.973145 274.700775,144.398804 
	C274.174530,145.229782 273.814148,145.604691 273.673370,146.049149 
	C268.370178,162.792603 261.857666,178.959244 251.469437,193.323105 
	C250.888672,194.126114 250.536499,195.593643 250.857040,196.465363 
	C252.494064,200.917130 254.387238,205.274704 256.484528,210.380264 
	C259.177307,206.858307 261.412079,203.935394 263.646851,201.012482 
	C263.999390,201.139923 264.351898,201.267349 264.704437,201.394791 
	C264.704437,220.437622 264.704437,239.480453 264.704437,258.824066 
	C268.291565,258.824066 271.278625,258.824066 275.170837,258.823700 
z"/>
<path fill="#030303" opacity="1.000000" stroke="none" 
	d="
M454.049988,322.000000 
	C454.047913,258.353943 454.117737,195.207733 454.014282,132.061829 
	C453.960236,99.055847 431.400604,71.620918 399.392242,65.555801 
	C394.033875,64.540466 388.463593,64.288895 382.990784,64.284813 
	C285.189362,64.211914 187.387924,64.231728 89.586479,64.231606 
	C87.604370,64.231598 85.622253,64.231598 83.060951,64.231598 
	C83.458908,62.596603 83.629959,61.364971 84.054527,60.228008 
	C91.662064,39.855614 111.311981,26.145409 133.572861,26.066597 
	C170.560333,25.935646 207.548599,26.023457 244.536530,26.022566 
	C305.683258,26.021095 366.829987,26.010910 427.976715,26.026987 
	C461.906342,26.035908 484.348328,48.485374 484.353699,82.449432 
	C484.369171,180.084259 484.363953,277.719086 484.350891,375.353912 
	C484.348267,394.998749 476.205872,410.377289 459.938446,421.406067 
	C458.351868,422.481689 456.578369,423.281586 454.049988,424.672455 
	C454.049988,389.978882 454.049988,356.239441 454.049988,322.000000 
z"/>
<path fill="#F7F7F7" opacity="1.000000" stroke="none" 
	d="
M214.880386,248.666809 
	C212.265457,251.936752 209.896271,254.928177 207.534515,257.910217 
	C199.424118,255.195114 195.586685,251.043716 180.885193,229.274765 
	C175.769943,235.061584 171.064713,241.588120 165.144318,246.710052 
	C160.205902,250.982452 153.926392,253.769318 148.036423,256.819336 
	C146.939560,257.387360 144.402908,256.568542 143.346985,255.546478 
	C140.745789,253.028687 138.619186,250.020554 135.882050,246.700500 
	C150.797272,240.529434 163.699356,232.267654 169.114304,215.401520 
	C160.324905,215.401520 152.001770,215.401520 143.085907,215.401520 
	C143.085907,221.733429 143.085907,227.965973 143.085907,234.633301 
	C134.745468,234.633301 126.976936,234.633301 118.664154,234.633301 
	C118.664154,238.282913 118.664154,241.511581 118.664154,245.104126 
	C113.902351,245.104126 109.689125,245.104126 105.261246,245.104126 
	C105.261246,213.868988 105.261246,182.801193 105.261246,151.442932 
	C117.791481,151.442932 130.043457,151.442932 142.932190,151.442932 
	C142.932190,168.075134 142.932190,184.618103 142.932190,201.453949 
	C145.290817,201.453949 147.015503,201.453949 149.318024,201.453949 
	C149.318024,188.336868 149.318024,175.427704 149.318024,161.909088 
	C157.090469,161.909088 164.317139,161.909088 172.053452,161.909088 
	C172.053452,156.062302 172.053452,150.813843 172.053452,144.954468 
	C177.843552,145.221786 183.071701,145.463165 187.195496,145.653564 
	C186.709198,151.075027 186.263794,156.040649 185.750061,161.768158 
	C194.199402,161.768158 201.914413,161.768158 210.159973,161.768158 
	C210.159973,175.344147 210.159973,188.249023 210.159973,201.365417 
	C212.287827,201.622742 213.897415,201.817398 215.853271,202.053925 
	C215.853271,206.147430 215.853271,210.220779 215.853271,214.840759 
	C207.379028,214.840759 198.967453,214.840759 189.712769,214.840759 
	C194.570084,227.827866 201.829315,237.712326 213.228821,244.404465 
	C214.599380,245.209061 217.916199,245.453705 214.880386,248.666809 
M186.101593,190.479599 
	C186.101593,194.090607 186.101593,197.701614 186.101593,201.523163 
	C189.757248,201.523163 192.977936,201.523163 196.452637,201.523163 
	C196.452637,192.637299 196.452637,184.063553 196.452637,175.266037 
	C192.975708,175.266037 189.773224,175.266037 186.103256,175.266037 
	C186.103256,180.230469 186.103256,184.860580 186.101593,190.479599 
M118.344788,218.938660 
	C121.000221,225.012543 125.542206,220.082794 129.112915,221.672668 
	C129.112915,213.595673 129.112915,206.411285 129.112915,199.306213 
	C125.367287,199.306213 122.006920,199.306213 118.340340,199.306213 
	C118.340340,205.822708 118.340340,211.928619 118.344788,218.938660 
M172.078003,192.436417 
	C172.078003,186.702866 172.078003,180.969299 172.078003,175.129425 
	C168.606628,175.129425 165.838730,175.129425 162.782898,175.129425 
	C162.782898,184.033768 162.782898,192.713959 162.782898,201.531586 
	C165.860413,201.531586 168.590317,201.531586 172.059738,201.531586 
	C172.059738,198.620789 172.059738,196.016220 172.078003,192.436417 
M118.340576,175.504807 
	C118.340576,178.909302 118.340576,182.313812 118.340576,185.818466 
	C122.381592,185.818466 125.634125,185.818466 129.082733,185.818466 
	C129.082733,178.553497 129.082733,171.556625 129.082733,164.486847 
	C125.434593,164.486847 122.188873,164.486847 118.340614,164.486847 
	C118.340614,168.007019 118.340614,171.271927 118.340576,175.504807 
z"/>
<path fill="#F4F4F4" opacity="1.000000" stroke="none" 
	d="
M358.037811,200.680481 
	C361.344360,203.721344 364.650879,206.762192 367.697693,209.564209 
	C361.876343,213.707870 356.323730,217.660233 350.604980,221.730865 
	C354.542542,230.484711 360.865906,236.685913 368.268555,242.081543 
	C365.172119,245.945053 362.293182,249.537231 359.175842,253.426865 
	C347.340698,246.157547 341.839417,233.988205 334.149658,222.936981 
	C334.448730,225.116531 334.940216,227.290161 335.007721,229.476852 
	C335.159180,234.384857 335.952087,239.480072 334.956116,244.175003 
	C332.601807,255.273376 320.982056,261.679291 310.204010,258.358856 
	C309.188690,258.046082 308.346771,256.383179 307.900970,255.171738 
	C306.949158,252.585007 306.310120,249.883209 305.415527,246.787582 
	C299.735046,249.448837 294.694336,251.810364 289.486481,254.250229 
	C286.910339,250.767242 284.559998,247.589569 281.877045,243.962158 
	C284.628845,242.883255 287.338989,242.131149 289.746246,240.821991 
	C299.083374,235.744049 308.339508,230.516037 317.590393,225.281357 
	C320.028656,223.901642 321.016327,222.079483 318.518219,219.799728 
	C309.356323,224.735107 300.182129,229.677094 290.774902,234.744598 
	C288.250092,231.238647 286.156433,228.331406 284.078644,225.446198 
	C293.527405,221.059418 302.810791,216.749420 312.094147,212.439423 
	C312.033783,211.712311 311.973419,210.985214 311.913055,210.258118 
	C310.302643,210.144424 308.496643,209.503845 307.118286,210.015396 
	C302.913818,211.575836 298.782745,213.403656 294.798798,215.466736 
	C291.529053,217.159943 289.329041,216.792023 287.510010,213.445618 
	C286.514740,211.614670 284.976959,210.078644 283.547607,208.233841 
	C290.957001,205.161880 298.051453,202.220490 305.145905,199.279083 
	C305.046295,198.793594 304.946655,198.308090 304.847046,197.822601 
	C299.856873,197.822601 294.866669,197.822601 289.192139,197.822601 
	C289.192139,193.741592 288.726715,190.226379 289.289337,186.884232 
	C290.449036,179.994965 287.217896,175.531342 281.389526,171.815384 
	C284.507141,168.942795 287.557831,166.660461 289.944275,163.820023 
	C294.534485,158.356583 298.623627,152.472321 303.208466,147.003967 
	C304.323792,145.673706 306.589783,144.532166 308.268066,144.607651 
	C312.046539,144.777588 315.788300,145.763794 320.144836,146.522247 
	C318.823639,147.955597 317.838043,149.024857 316.389679,150.596176 
	C326.836853,153.075943 338.462799,147.186661 346.605255,156.761856 
	C344.791168,159.251938 342.959076,161.766708 340.723694,164.772247 
	C339.867798,166.090179 339.415161,166.917374 338.213135,169.114090 
	C347.116455,169.114090 355.033386,169.114090 362.950348,169.114090 
	C362.936401,177.239502 362.783997,185.368210 362.976837,193.488724 
	C363.053680,196.724197 362.108551,198.197708 357.947052,197.666290 
	C352.064056,197.629089 347.027069,197.629089 341.259033,197.629089 
	C342.716064,202.398224 343.887726,206.233231 345.274261,210.771484 
	C347.414368,208.992188 348.883911,207.709534 350.417725,206.509048 
	C352.935791,204.538147 355.495605,202.620544 358.037811,200.680481 
M348.820160,179.915131 
	C347.610504,179.359177 346.429413,178.415085 345.185577,178.323502 
	C342.053619,178.092911 338.878235,178.439850 335.748474,178.194733 
	C332.322998,177.926468 330.760498,179.079224 331.241180,182.631638 
	C331.452301,184.191833 331.454651,185.780289 331.554565,187.400894 
	C337.524841,187.400894 342.918793,187.400894 348.875031,187.400894 
	C348.875031,185.018433 348.875031,182.906937 348.820160,179.915131 
M303.293213,187.429642 
	C308.167419,187.429642 313.041656,187.429642 318.046295,187.429642 
	C318.046295,184.251984 318.046295,181.525970 318.046295,178.246841 
	C314.999939,178.246841 312.238861,178.246094 309.477783,178.246979 
	C301.958618,178.249374 301.955994,178.249802 302.394531,185.883118 
	C302.412964,186.203964 302.565186,186.517105 303.293213,187.429642 
M318.450867,161.881531 
	C316.625519,161.882065 314.764862,162.112823 312.981598,161.839233 
	C307.968414,161.070084 306.330231,164.496704 303.734436,168.549271 
	C309.199463,168.549271 313.661469,168.310928 318.086395,168.613831 
	C322.862335,168.940781 324.727356,166.245544 326.272705,161.881622 
	C323.645416,161.881622 321.523132,161.881622 318.450867,161.881531 
M329.968567,214.700623 
	C330.997406,216.822083 332.026215,218.943542 333.055054,221.065002 
	C333.499451,220.904068 333.943848,220.743149 334.388214,220.582214 
	C332.585754,212.964478 330.783264,205.346741 328.756073,196.779266 
	C325.498932,199.001556 323.011047,200.699005 320.452728,202.444504 
	C323.691742,206.566452 326.639282,210.317444 329.968567,214.700623 
M317.995941,238.410248 
	C314.504456,240.714569 311.012970,243.018906 307.021454,245.653229 
	C318.121582,248.050552 323.094635,244.755432 322.503662,235.663010 
	C321.084442,236.511002 319.850250,237.248459 317.995941,238.410248 
z"/>
<path fill="#F5F5F5" opacity="1.000000" stroke="none" 
	d="
M268.047485,307.062744 
	C299.681976,307.062744 330.824829,307.062744 362.333435,307.062744 
	C362.333435,311.790222 362.333435,316.166016 362.333435,321.101624 
	C332.504181,321.101624 302.933411,321.101624 273.095459,321.101624 
	C273.095459,345.913330 273.095459,370.168976 273.095459,394.955383 
	C303.716553,394.955383 334.286804,394.955383 365.247192,394.955383 
	C365.247192,399.876495 365.247192,404.282135 365.247192,409.224182 
	C334.694824,409.224182 304.119415,409.224182 273.353882,409.224182 
	C273.012543,411.285156 272.751099,412.863892 272.428345,414.812683 
	C267.831543,414.812683 263.290649,414.812683 258.433777,414.812683 
	C258.433777,379.122772 258.433777,343.525299 258.433777,307.062744 
	C261.406891,307.062744 264.481354,307.062744 268.047485,307.062744 
z"/>
<path fill="#F4F4F4" opacity="1.000000" stroke="none" 
	d="
M107.354263,370.253174 
	C121.955521,370.252350 136.088440,370.252350 150.592346,370.252350 
	C150.768875,367.420135 150.919830,364.998199 151.003113,363.662079 
	C156.219238,361.533813 160.852707,359.643311 165.486160,357.752808 
	C165.326508,357.057312 165.166855,356.361786 165.007202,355.666290 
	C152.073715,355.666290 139.140228,355.666290 125.949783,355.666290 
	C125.949783,350.948486 125.949783,347.039917 125.949783,342.516602 
	C129.256805,342.516602 132.371017,342.534760 135.484970,342.513519 
	C150.974518,342.407776 166.477142,341.908325 181.944534,342.439514 
	C185.987350,342.578308 189.920502,345.911072 194.729050,348.163391 
	C185.708450,355.769653 177.529282,362.666382 168.683243,370.125458 
	C183.698105,370.125458 198.057785,370.125458 212.784332,370.125458 
	C212.784332,374.881104 212.784332,379.070953 212.784332,383.663239 
	C197.295288,383.663239 182.014908,383.663239 165.975113,383.663239 
	C165.975113,388.953094 166.008118,393.880676 165.968292,398.807648 
	C165.884003,409.236725 162.763046,412.994202 152.450089,414.372223 
	C147.512665,415.031982 142.488083,415.142212 137.498108,415.232483 
	C136.275040,415.254639 134.360962,414.544220 133.916763,413.618011 
	C132.073975,409.775604 130.672363,405.721588 128.956985,401.359192 
	C133.274796,401.359192 137.212509,401.377747 141.149994,401.355652 
	C152.693756,401.290894 150.678040,402.278442 150.863525,391.392822 
	C150.902771,389.089478 150.869232,386.784882 150.869232,383.967834 
	C135.288849,383.967834 120.053612,383.967834 104.061005,383.967834 
	C104.061005,379.723114 103.913399,375.964355 104.188698,372.236847 
	C104.242126,371.513428 105.944283,370.911774 107.354263,370.253174 
z"/>
<path fill="#F4F4F4" opacity="1.000000" stroke="none" 
	d="
M211.861298,325.188232 
	C211.861206,333.475983 211.861206,341.282776 211.861206,349.491760 
	C206.985565,349.491760 202.461090,349.491760 197.388245,349.491760 
	C197.388245,344.098267 197.388245,338.847717 197.388245,333.324799 
	C171.457428,333.324799 146.069244,333.324799 120.114044,333.324799 
	C120.114044,338.749237 120.114044,343.989716 120.114044,349.556213 
	C115.317200,349.556213 111.080376,349.556213 106.446899,349.556213 
	C106.446899,339.961121 106.446899,330.395264 106.446899,320.079559 
	C111.153259,320.079559 115.992760,320.079559 122.282570,320.079559 
	C119.052727,315.122009 116.585258,311.334625 113.884834,307.189667 
	C117.497353,305.569031 120.758690,303.941803 124.158134,302.689453 
	C125.074501,302.351898 126.918144,302.765625 127.471642,303.492615 
	C131.340881,308.574890 134.983124,313.829956 139.101074,319.593842 
	C142.328583,319.593842 146.729263,319.593842 152.073349,319.593842 
	C149.467438,314.324524 147.159210,309.657135 144.602722,304.487762 
	C148.358246,303.089325 151.860077,301.659149 155.458908,300.541199 
	C156.275238,300.287628 157.949371,300.814941 158.343994,301.495697 
	C161.712555,307.306427 164.877090,313.235474 168.471558,319.803040 
	C176.066055,322.198181 181.263519,318.275299 185.261932,310.372284 
	C189.935989,301.133820 190.383759,301.355164 200.230515,304.888977 
	C202.243790,305.611511 204.240372,306.380554 205.885544,306.994232 
	C202.653915,311.040558 199.563339,314.910248 195.636353,319.827240 
	C201.774063,319.827240 206.489975,319.827240 211.538040,319.827240 
	C211.669724,321.814514 211.765564,323.260895 211.861298,325.188232 
z"/>
<path fill="#F5F5F5" opacity="1.000000" stroke="none" 
	d="
M311.973328,343.360718 
	C313.540375,344.357697 314.796967,345.131256 316.836060,346.386505 
	C321.185669,339.517059 325.609711,332.935791 329.565918,326.084381 
	C331.172211,323.302612 332.544952,322.689392 335.407318,324.065155 
	C339.404358,325.986206 343.582031,327.531342 346.912445,328.916992 
	C340.808624,337.703064 334.850677,346.279205 328.837708,354.934479 
	C336.735046,362.147247 344.426514,369.171997 352.472626,376.520691 
	C348.219025,380.216980 344.507721,383.442047 340.026245,387.336334 
	C334.093964,380.661011 327.398529,373.126923 320.882385,365.794647 
	C309.659149,375.744446 300.000305,384.307343 290.078308,393.103546 
	C285.705475,389.338287 281.983521,386.133484 278.289368,382.952637 
	C288.052917,374.664734 297.714691,366.463196 308.132172,357.620178 
	C298.845703,351.122437 290.576538,345.336517 281.695129,339.122192 
	C284.408051,336.584473 286.879395,333.938080 289.730957,331.798370 
	C290.650269,331.108521 292.889862,331.219238 293.978668,331.873627 
	C299.967041,335.472351 305.785828,339.353271 311.973328,343.360718 
z"/>
<path fill="#F4F4F4" opacity="1.000000" stroke="none" 
	d="
M274.718262,258.823883 
	C271.278625,258.824066 268.291565,258.824066 264.704437,258.824066 
	C264.704437,239.480453 264.704437,220.437622 264.704437,201.394791 
	C264.351898,201.267349 263.999390,201.139923 263.646851,201.012482 
	C261.412079,203.935394 259.177307,206.858307 256.484528,210.380264 
	C254.387238,205.274704 252.494064,200.917130 250.857040,196.465363 
	C250.536499,195.593643 250.888672,194.126114 251.469437,193.323105 
	C261.857666,178.959244 268.370178,162.792603 273.673370,146.049149 
	C273.814148,145.604691 274.174530,145.229782 274.700775,144.398804 
	C279.496216,145.973145 284.332306,147.560837 288.305969,148.865387 
	C285.053314,156.897141 281.839264,164.700043 278.835205,172.582977 
	C278.654816,173.056305 280.151062,174.168579 280.422760,174.477814 
	C279.759766,177.253799 278.709839,179.630798 278.697632,182.013123 
	C278.574860,205.998779 278.626953,229.985291 278.614380,253.971573 
	C278.613129,256.367249 279.363342,259.369995 274.718262,258.823883 
z"/>
<path fill="#191919" opacity="1.000000" stroke="none" 
	d="
M358.050110,200.337769 
	C355.495605,202.620544 352.935791,204.538147 350.417725,206.509048 
	C348.883911,207.709534 347.414368,208.992188 345.274261,210.771484 
	C343.887726,206.233231 342.716064,202.398224 341.259033,197.629089 
	C347.027069,197.629089 352.064056,197.629089 357.546143,197.784149 
	C358.014954,198.624496 358.038666,199.309784 358.050110,200.337769 
z"/>
<path fill="#191919" opacity="1.000000" stroke="none" 
	d="
M362.912506,168.702911 
	C355.033386,169.114090 347.116455,169.114090 338.213135,169.114090 
	C339.415161,166.917374 339.867798,166.090179 340.644470,165.101166 
	C342.500671,165.627930 344.001099,166.809006 345.571198,166.910385 
	C349.845062,167.186371 354.152649,166.897415 358.437744,167.065155 
	C359.930450,167.123596 361.396454,167.863220 362.912506,168.702911 
z"/>
<path fill="#141414" opacity="1.000000" stroke="none" 
	d="
M186.102417,189.985138 
	C186.103256,184.860580 186.103256,180.230469 186.103256,175.266037 
	C189.773224,175.266037 192.975708,175.266037 196.452637,175.266037 
	C196.452637,184.063553 196.452637,192.637299 196.452637,201.523163 
	C192.977936,201.523163 189.757248,201.523163 186.101593,201.523163 
	C186.101593,197.701614 186.101593,194.090607 186.102417,189.985138 
z"/>
<path fill="#131313" opacity="1.000000" stroke="none" 
	d="
M118.342560,218.486588 
	C118.340340,211.928619 118.340340,205.822708 118.340340,199.306213 
	C122.006920,199.306213 125.367287,199.306213 129.112915,199.306213 
	C129.112915,206.411285 129.112915,213.595673 129.112915,221.672668 
	C125.542206,220.082794 121.000221,225.012543 118.342560,218.486588 
z"/>
<path fill="#181818" opacity="1.000000" stroke="none" 
	d="
M172.068878,192.924042 
	C172.059738,196.016220 172.059738,198.620789 172.059738,201.531586 
	C168.590317,201.531586 165.860413,201.531586 162.782898,201.531586 
	C162.782898,192.713959 162.782898,184.033768 162.782898,175.129425 
	C165.838730,175.129425 168.606628,175.129425 172.078003,175.129425 
	C172.078003,180.969299 172.078003,186.702866 172.068878,192.924042 
z"/>
<path fill="#131313" opacity="1.000000" stroke="none" 
	d="
M118.340591,175.020813 
	C118.340614,171.271927 118.340614,168.007019 118.340614,164.486847 
	C122.188873,164.486847 125.434593,164.486847 129.082733,164.486847 
	C129.082733,171.556625 129.082733,178.553497 129.082733,185.818466 
	C125.634125,185.818466 122.381592,185.818466 118.340576,185.818466 
	C118.340576,182.313812 118.340576,178.909302 118.340591,175.020813 
z"/>
<path fill="#202020" opacity="1.000000" stroke="none" 
	d="
M348.847595,180.355286 
	C348.875031,182.906937 348.875031,185.018433 348.875031,187.400894 
	C342.918793,187.400894 337.524841,187.400894 331.554565,187.400894 
	C331.454651,185.780289 331.452301,184.191833 331.241180,182.631638 
	C330.760498,179.079224 332.322998,177.926468 335.748474,178.194733 
	C338.878235,178.439850 342.053619,178.092911 345.185577,178.323502 
	C346.429413,178.415085 347.610504,179.359177 348.847595,180.355286 
z"/>
<path fill="#202020" opacity="1.000000" stroke="none" 
	d="
M302.974152,187.131744 
	C302.565186,186.517105 302.412964,186.203964 302.394531,185.883118 
	C301.955994,178.249802 301.958618,178.249374 309.477783,178.246979 
	C312.238861,178.246094 314.999939,178.246841 318.046295,178.246841 
	C318.046295,181.525970 318.046295,184.251984 318.046295,187.429642 
	C313.041656,187.429642 308.167419,187.429642 302.974152,187.131744 
z"/>
<path fill="#232323" opacity="1.000000" stroke="none" 
	d="
M318.925842,161.881577 
	C321.523132,161.881622 323.645416,161.881622 326.272705,161.881622 
	C324.727356,166.245544 322.862335,168.940781 318.086395,168.613831 
	C313.661469,168.310928 309.199463,168.549271 303.734436,168.549271 
	C306.330231,164.496704 307.968414,161.070084 312.981598,161.839233 
	C314.764862,162.112823 316.625519,161.882065 318.925842,161.881577 
z"/>
<path fill="#171717" opacity="1.000000" stroke="none" 
	d="
M329.777710,214.384521 
	C326.639282,210.317444 323.691742,206.566452 320.452728,202.444504 
	C323.011047,200.699005 325.498932,199.001556 328.756073,196.779266 
	C330.783264,205.346741 332.585754,212.964478 334.388214,220.582214 
	C333.943848,220.743149 333.499451,220.904068 333.055054,221.065002 
	C332.026215,218.943542 330.997406,216.822083 329.777710,214.384521 
z"/>
<path fill="#232323" opacity="1.000000" stroke="none" 
	d="
M318.306000,238.198090 
	C319.850250,237.248459 321.084442,236.511002 322.503662,235.663010 
	C323.094635,244.755432 318.121582,248.050552 307.021454,245.653229 
	C311.012970,243.018906 314.504456,240.714569 318.306000,238.198090 
z"/>
</svg>